<?xml version="1.0" encoding="UTF-8" standalone="no"?>
<!-- Created with Inkscape (http://www.inkscape.org/) -->

<svg
   xmlns:dc="http://purl.org/dc/elements/1.1/"
   xmlns:cc="http://creativecommons.org/ns#"
   xmlns:rdf="http://www.w3.org/1999/02/22-rdf-syntax-ns#"
   xmlns:svg="http://www.w3.org/2000/svg"
   xmlns="http://www.w3.org/2000/svg"
   xmlns:sodipodi="http://sodipodi.sourceforge.net/DTD/sodipodi-0.dtd"
   xmlns:inkscape="http://www.inkscape.org/namespaces/inkscape"
   width="210mm"
   height="297mm"
   viewBox="0 0 210 297"
   version="1.1"
   id="svg8"
   inkscape:version="0.92.3 (2405546, 2018-03-11)"
   sodipodi:docname="dibujo.svg">
  <defs
     id="defs2" />
  <sodipodi:namedview
     id="base"
     pagecolor="#ffffff"
     bordercolor="#666666"
     borderopacity="1.0"
     inkscape:pageopacity="0.0"
     inkscape:pageshadow="2"
     inkscape:zoom="0.35"
     inkscape:cx="400"
     inkscape:cy="560"
     inkscape:document-units="mm"
     inkscape:current-layer="layer1"
     showgrid="false"
     showguides="true"
     inkscape:window-width="1920"
     inkscape:window-height="1017"
     inkscape:window-x="-8"
     inkscape:window-y="-8"
     inkscape:window-maximized="1" />
  <metadata
     id="metadata5">
    <rdf:RDF>
      <cc:Work
         rdf:about="">
        <dc:format>image/svg+xml</dc:format>
        <dc:type
           rdf:resource="http://purl.org/dc/dcmitype/StillImage" />
        <dc:title></dc:title>
      </cc:Work>
    </rdf:RDF>
  </metadata>
  <g
     inkscape:label="Capa 1"
     inkscape:groupmode="layer"
     id="layer1">
    <path
       id="path3715"
       style="fill:#280b0b;stroke-width:0.26458332"
       d="m 111.59073,177.45672 -0.36225,0.18965 c 0.0305,0.25522 0.0539,0.51089 0.0811,0.76636 0.0953,-0.31807 0.18822,-0.63714 0.28112,-0.95601 z m 129.45363,26.91879 c -0.307,0.3819 -0.63455,0.78694 -0.98288,1.21646 0.18664,-0.1789 0.37322,-0.35768 0.56224,-0.5333 0.18018,-0.16742 0.35878,-0.355 0.54105,-0.54054 -0.0402,-0.0475 -0.0805,-0.0949 -0.12041,-0.14262 z"
       inkscape:connector-curvature="0" />
    <rect
       style="fill:#550000;stroke-width:0.26458332"
       id="rect3746"
       width="166.30952"
       height="92.226196"
       x="30.238094"
       y="95.160713" />
    <path
       style="fill:#ff0000;stroke-width:0.26458332"
       id="path3750"
       d="m 58.217911,108.56704 c -2.536905,0.48255 -5.0384,1.20938 -7.427185,2.19246 -3.560744,1.7575 -8.9578,4.94266 6.939655,-4.08557 1.646442,-0.93502 -1.480984,0.95011 -1.819108,1.20757 -1.058659,0.70201 -1.900981,1.65423 -2.805385,2.53155 -0.971227,0.99136 -2.008097,1.88636 -2.884625,2.96924 -0.746734,1.19899 -1.496814,2.40602 -2.115907,3.67731 -0.478266,1.23748 -0.942253,2.47182 -1.312588,3.74598 -0.416321,1.43269 -0.920464,2.83959 -1.288277,4.28582 -0.185378,1.37421 -0.529561,2.71081 -0.831689,4.06138 -0.276807,1.3691 -0.315134,2.76903 -0.347244,4.16075 0.0075,1.48393 -0.08346,2.97358 0.04489,4.45343 0.162274,1.53552 0.673105,2.99441 1.014288,4.4927 0.220456,1.34517 0.663786,2.64238 1.114901,3.92485 0.374848,1.25623 0.699915,2.53719 1.237483,3.73704 0.374782,1.05419 0.934063,1.98488 1.551654,2.90687 0.664996,1.02692 1.341816,2.02524 2.201669,2.89962 1.029044,0.9498 2.105702,1.87409 3.305313,2.60618 1.045376,0.84911 2.265262,1.46889 3.540548,1.89064 1.263047,0.39762 2.465104,0.8584 3.788251,1.04283 1.419646,0.14855 2.849441,0.1441 4.275119,0.14891 1.509969,9e-5 3.01993,-0.005 4.529897,-0.008 1.513107,-0.002 3.026219,-0.003 4.539329,-0.003 1.433962,-0.21098 2.781316,-0.53808 4.050789,-1.24695 0.214874,-0.0954 0.848027,-0.4041 0.644618,-0.28621 -22.751862,13.18614 0.103772,-0.11558 1.700062,-0.98447 3.079324,-1.67614 -6.081366,3.49054 -9.127077,5.22701 -0.17276,0.0985 0.338629,-0.20862 0.507944,-0.31294 0.584062,-0.33968 0.322553,-0.17575 0.789657,-0.48351 0,0 10.389888,-4.39736 10.389888,-4.39736 v 0 c -0.333719,0.61155 -0.118459,0.32405 -0.668327,0.84516 -4.268988,2.31146 5.755399,-3.12243 -10.681316,6.14818 -3.041957,1.71572 6.044274,-3.5008 9.067321,-5.24963 0.188124,-0.10883 -0.374086,0.22139 -0.562547,0.32964 -10.37169,5.95742 -6.654829,4.23334 -10.865857,6.15978 -1.392637,0.51558 -2.844554,0.83414 -4.336413,0.85683 -1.512718,5.3e-4 -3.025433,0.001 -4.538149,0.004 -1.512554,0.003 -3.025153,0.0101 -4.537691,-7.9e-4 -1.467729,-0.0199 -2.944207,-0.0381 -4.393504,-0.29713 -1.338292,-0.28874 -2.598442,-0.79422 -3.898548,-1.21478 -1.308735,-0.54364 -2.557476,-1.2124 -3.672864,-2.0945 -1.227553,-0.83735 -2.381324,-1.78546 -3.450252,-2.8172 -0.889992,-0.93412 -1.596456,-1.99677 -2.315956,-3.06343 -0.655171,-0.97161 -1.23848,-1.96444 -1.638636,-3.0722 -0.561162,-1.22452 -0.915752,-2.53395 -1.2726,-3.82921 -0.468625,-1.32398 -0.963774,-2.65782 -1.173306,-4.05183 -0.321548,-1.53984 -0.870669,-3.01972 -1.065577,-4.58595 -0.228238,-1.51803 -0.09228,-3.05857 -0.118669,-4.59027 0.01844,-1.44748 0.03694,-2.90076 0.247687,-4.33583 0.243436,-1.38002 0.740215,-2.68972 0.831369,-4.09632 0.305488,-1.4919 0.836999,-2.90476 1.236363,-4.37058 0.22905,-0.63737 0.33809,-1.28951 0.559996,-1.92813 0.07094,-0.20415 0.159584,-0.4017 0.239377,-0.60255 0.09199,-0.19207 0.20339,-0.376 0.275979,-0.57622 0.08614,-0.2376 0.132164,-0.48788 0.198247,-0.73181 0.516419,-1.39122 1.361707,-2.58753 2.023096,-3.90545 0.756193,-1.19088 1.669614,-2.23444 2.811989,-3.07281 0.794618,-1.01038 1.786586,-1.88044 2.729061,-2.74796 0.748824,-0.53592 0.378267,-0.24153 1.106286,-0.88989 3.9989,-2.9271 8.470271,-5.30932 13.03142,-7.27928 2.471049,-0.86759 4.995151,-1.56453 7.561683,-2.09062 0,0 -8.936529,6.7962 -8.936529,6.7962 z"
       inkscape:connector-curvature="0" />
    <path
       style="fill:#ff0000;stroke-width:0.26458332"
       id="path3752"
       d="m 69.446917,108.90333 c -2.475712,-0.31014 -4.967174,-0.46503 -7.459231,-0.56231 -1.44667,0.0234 -3.109248,0.1217 -4.450723,0.72174 -0.538028,0.32283 -1.195499,0.30521 -1.768367,0.50139 -0.556307,0.1905 -1.046297,0.4798 -1.624602,0.64417 -0.606756,0.56633 -1.423136,0.59378 -2.151552,0.86035 -0.357942,0.13099 -0.680151,0.3462 -1.033026,0.49028 -0.194072,0.0554 -0.397854,0.084 -0.582213,0.16614 -0.341677,0.15217 -1.305748,0.73025 -0.981922,0.54307 15.376695,-8.88812 11.592245,-6.78802 8.308242,-4.67505 -0.849481,0.64473 -1.572074,1.42669 -2.357032,2.14285 -0.806818,0.72644 -1.431854,1.5871 -2.036527,2.48271 -0.700839,0.8543 -1.28473,1.80908 -1.766467,2.80256 -0.398645,0.78793 -0.677577,1.6257 -1.040342,2.42978 0,0 -10.231524,4.68436 -10.231524,4.68436 v 0 c 0.361537,-0.82283 0.756999,-1.60915 1.018696,-2.4736 0.529561,-1.03362 0.985877,-2.07629 1.65245,-3.03079 0.784505,-0.77235 1.117679,-1.87772 2.011891,-2.54034 0.661324,-0.84566 1.511978,-1.5543 2.306913,-2.26483 0.448024,-0.49502 0.271132,-0.37608 0.841113,-0.70838 4.229965,-2.46613 7.461742,-4.93443 11.701129,-6.52972 1.069112,-0.44723 2.174306,-0.81085 3.23119,-1.28746 1.118486,-0.43234 2.266598,-0.75298 3.408211,-1.12037 1.531091,-0.27948 3.067513,-0.5516 4.631145,-0.37461 2.514314,0.14236 5.023056,0.3563 7.529634,0.59864 0,0 -9.157086,6.49942 -9.157086,6.49942 z"
       inkscape:connector-curvature="0" />
    <path
       style="fill:#ff0000;stroke-width:0.26458332"
       id="path3754"
       d="m 99.496987,157.68136 c 0.0052,1.86689 0.375584,3.71029 2.015803,4.77228 1.41248,0.3205 2.73404,-0.23009 4.08566,-0.55686 1.39333,-0.28691 2.85523,-0.27396 4.06778,-1.08903 3.53102,-1.87899 2.44133,-1.30599 -8.67659,4.99409 -0.14411,0.0817 0.28244,-0.17673 0.40434,-0.28888 0.28175,-0.25923 0.45516,-0.54946 0.53214,-0.91626 1.21529,3.75636 -0.13256,-0.0351 9.7467,-4.43093 0.20503,-0.0912 -0.21703,0.39483 -0.29411,0.60558 -0.28034,0.76645 -0.34376,1.56257 -0.37242,2.36822 0.0392,0.22173 0.0581,0.44804 0.11767,0.66519 0.14939,0.5445 0.32938,0.56547 0.33619,0.54655 1.00569,-2.79562 -11.11522,8.99247 -9.34237,4.23793 0.15188,-0.95243 0.0636,-2.2453 -1.07735,-2.44097 -3.279199,2.80655 -0.90247,0.58474 8.61592,-4.68819 0.14717,-0.0815 -0.25498,0.22407 -0.35281,0.36095 -0.26171,0.36616 -0.27202,0.53656 -0.38027,0.94315 0.0874,1.21183 1.43933,0.34746 1.99085,0.0132 3.4949,-2.49379 -0.12863,0.12423 -8.20453,4.60721 -0.25362,0.14078 0.46937,-0.34263 0.68553,-0.53608 0.61254,-0.54816 0.99203,-1.15926 1.36061,-1.88115 0.56975,-1.43456 -0.76437,-1.06378 -1.53134,-0.54299 3.05229,-1.71497 6.10458,-3.42994 9.15687,-5.14491 -0.5226,0.0174 -0.63571,0.83277 -0.9809,1.03177 -3.36481,1.93984 -6.73654,3.87103 -10.17167,5.68343 -0.15976,0.0843 -0.36067,-0.0209 -0.54101,-0.0313 -0.47548,-0.0617 -1.045323,0.005 -1.48913,0.21188 -0.291803,0.13588 -0.533243,0.36366 -0.819636,0.51061 3.082236,-1.76257 6.164466,-3.52514 9.246696,-5.28772 -0.65619,0.47108 -1.60301,0.95672 -1.63418,1.87686 0.49607,0.2931 1.38703,-0.31793 1.79815,-0.62357 -3.02307,1.71781 -6.04613,3.43561 -9.069203,5.15341 0.420047,-0.17464 2.113803,-2.07588 1.500903,-2.32753 -0.14533,0.26646 -0.391008,0.57583 -0.617951,0.78359 -0.117772,0.10781 -0.540518,0.33987 -0.402064,0.26035 9.269935,-5.32432 11.944315,-7.60237 8.766455,-4.94725 -0.78277,0.78031 -1.47603,1.88015 -1.30845,3.02773 0.0508,0.0215 0.10179,0.0863 0.15251,0.0645 0.18245,-0.0784 0.30162,-0.25873 0.44415,-0.39698 0.10497,-0.10183 0.40066,-0.41455 0.27275,-0.34365 -8.940187,4.95524 -11.866714,7.8355 -8.946783,5.01402 0.500282,-0.1763 0.678129,-2.82672 0.08306,-1.49871 0,0 9.108023,-6.65644 9.108023,-6.65644 v 0 c 1.59804,0.85718 1.56856,1.98165 1.11156,3.59156 -1.53546,4.20779 -0.15777,0.81216 -10.174421,6.58401 -0.745514,0.42958 -1.637803,-0.47585 -1.964259,-1.00262 -0.429882,-1.43702 0.0069,-2.84404 0.818573,-4.07836 2.917887,-3.41659 0.307396,-0.46089 10.406317,-6.44263 0.70098,-0.41519 1.3823,-0.29152 1.9552,0.27749 0.95928,1.48415 0.30468,2.74006 -0.73288,3.99402 -3.41018,1.9755 -6.78712,4.00953 -10.230552,5.92649 -1.04408,0.58124 -2.388354,-0.1064 -2.911954,-1.02411 -0.360873,-1.18563 -0.0113,-2.40594 1.090046,-3.07384 5.50784,-3.21139 7.52139,-6.04906 12.61796,-6.26651 3.9228,-0.92455 0.6014,-0.18816 -8.7931,5.36697 -0.0905,0.0535 0.19407,-0.0924 0.2669,-0.16823 0.29182,-0.30409 0.31858,-0.84662 0.67749,-1.06754 3.34274,-2.05754 6.80357,-3.91673 10.20535,-5.87509 1.78361,-0.14142 3.12865,0.81963 2.84314,2.74331 -1.83308,5.32122 -8.08034,7.25819 -12.89945,9.4362 -1.55478,0.29798 -2.859405,-0.29252 -3.226213,-1.9391 0.0531,-4.98996 6.942683,-9.20396 11.615413,-7.83062 1.33741,0.91626 1.81744,2.18787 1.82179,3.78983 -0.80662,5.145 -10.45044,10.66079 -11.25723,4.5208 -0.0218,-0.42257 0.0642,-3.31577 0.37106,-3.51043 10.10748,-6.41124 8.08836,-9.03547 10.61989,-5.24402 0.35562,4.92896 -8.05016,6.69123 -11.14879,8.32464 -1.375613,0.40935 -2.793909,0.55918 -4.187795,0.89479 -1.587587,0.37479 -3.176117,0.6483 -4.651455,-0.25553 -1.729856,-1.46061 -2.402519,-3.43717 -2.524461,-5.67634 0,0 10.005883,-5.09825 10.005883,-5.09825 z"
       inkscape:connector-curvature="0" />
    <path
       style="fill:#ff0000;stroke-width:0.26458332"
       id="path3758"
       d="m 127.65132,112.16603 c 0.73948,2.93974 1.78822,5.78851 2.61304,8.70286 0.62647,2.17633 1.55562,4.24999 2.44861,6.32662 0.78099,1.67481 1.36956,3.43674 2.18888,5.09238 0.80096,1.49982 1.51965,3.03409 2.17675,4.60222 0.68723,1.48731 1.30406,3.01221 1.81853,4.56815 0.60079,1.25634 0.98287,2.59215 1.41216,3.91206 0.37494,1.30267 0.90828,2.55634 1.39935,3.81964 0.45423,1.48392 1.11391,2.89035 1.63802,4.3482 0.58132,1.50215 1.1409,3.01675 1.62023,4.55501 0.57998,1.47845 0.94338,3.02297 1.39148,4.54294 1.47466,5.60058 0.67078,2.19568 -9.32103,7.24574 0.12437,-1.31487 0.0925,-2.63995 0.0895,-3.95934 -0.027,-1.70532 0.32858,-3.38601 0.51597,-5.07624 0.0771,-1.66207 0.32755,-3.29834 0.70614,-4.9167 0.33567,-1.45668 0.84565,-2.84002 1.49963,-4.18058 0.68143,-1.59469 1.43977,-3.12748 2.36473,-4.5944 0.92059,-1.58864 2.02606,-3.04928 3.11548,-4.52285 1.29294,-1.76464 2.56152,-3.55318 3.92277,-5.26633 1.29403,-1.47519 2.51168,-3.01503 3.69111,-4.58269 1.31607,-1.6391 2.54545,-3.34463 3.84151,-4.99901 1.09711,-1.4279 2.31894,-2.74956 3.46808,-4.1332 1.12731,-1.34352 2.25853,-2.68372 3.39291,-4.02137 0.86979,-1.1231 1.97903,-2.02167 3.10861,-2.86906 1.03794,-0.80936 2.08795,-1.60142 3.13633,-2.39704 0,0 10.42467,-4.21636 10.42467,-4.21636 v 0 c -0.97024,0.90604 -2.1311,1.55995 -3.10875,2.46196 -1.11815,0.82322 -2.25852,1.60904 -3.23012,2.60934 -1.06493,1.397 -2.27654,2.67398 -3.39465,4.03123 -1.13147,1.41199 -2.37396,2.7141 -3.49411,4.135 -1.3353,1.62153 -2.51759,3.3556 -3.86368,4.96833 -1.17826,1.57491 -2.32912,3.18073 -3.66186,4.63008 -1.43007,1.64846 -2.67298,3.45434 -3.95365,5.21496 -1.08494,1.4479 -2.22574,2.86929 -3.10869,4.45298 -0.9748,1.39983 -1.83999,2.82671 -2.41664,4.44153 -0.60367,1.31498 -1.33129,2.56204 -1.59291,4.00874 -0.49303,1.53531 -0.71764,3.14847 -0.7961,4.75579 -0.1638,1.65669 -0.49253,3.30179 -0.55498,4.95962 0.008,1.35154 0.023,2.70323 0.005,4.05474 -11.36946,6.68586 -9.13861,9.13455 -10.6444,3.14895 -0.44482,-1.51805 -0.7997,-3.06162 -1.3865,-4.53464 -0.45052,-1.52986 -1.01971,-3.02608 -1.59617,-4.51185 -0.50022,-1.45412 -1.19116,-2.83502 -1.63081,-4.31132 -0.49735,-1.28313 -1.05683,-2.55068 -1.42851,-3.87595 -0.4283,-1.32186 -0.81138,-2.65838 -1.40497,-3.9195 -0.47898,-1.5353 -1.09775,-3.03008 -1.77114,-4.48923 -0.63556,-1.54964 -1.34473,-3.05962 -2.13081,-4.53839 -0.83973,-1.67107 -1.41903,-3.45826 -2.19871,-5.1583 -0.91863,-2.12347 -1.84615,-4.25599 -2.48171,-6.48462 -0.77906,-2.90238 -1.77869,-5.74021 -2.65014,-8.61546 0,0 9.83151,-5.41464 9.83151,-5.41464 z"
       inkscape:connector-curvature="0" />
    <path
       style="fill:#ff0000;stroke-width:0.26458332"
       id="path3762"
       d="m 170.8113,173.0777 c 1.9728,-1.77213 4.07233,-3.41558 5.96861,-5.27073 0.57284,-0.80526 0.71276,-0.57388 0.36144,-0.54303 -0.32505,0.0285 -0.65231,-0.0197 -0.97834,-0.0329 -0.92747,0.0369 -1.90917,-0.17882 -2.80966,0.13223 -0.43236,0.14934 -0.82012,0.40565 -1.23513,0.59802 15.66971,-9.08817 9.70273,-6.5525 6.80696,-2.91828 -2.98507,3.47841 -7.7529,8.91077 -12.23708,6.63825 -1.06307,-0.82648 -1.34074,-2.0088 -1.18344,-3.28623 1.47875,-4.10076 6.08407,-4.21434 10.64434,-6.32799 0.15769,-0.0731 1.29276,1.04689 1.40951,1.16544 0.3978,0.92766 0.56877,-0.32013 0.41885,-0.24133 -3.20562,1.68494 -6.20334,3.7476 -9.41202,5.42671 -0.15289,0.08 0.0414,-0.3447 0.0296,-0.51685 -0.0102,-0.14825 -0.0635,-0.29034 -0.0952,-0.43552 -0.59865,-0.84264 -1.31463,-1.35782 -1.57384,-2.38823 3.7128,-2.46122 8.84173,-8.39037 12.45086,-4.15524 0.11181,0.1942 0.22363,0.3884 0.33545,0.58261 0,0 -9.75653,5.63254 -9.75653,5.63254 v 0 c -0.0706,-0.12196 -0.14118,-0.24391 -0.21177,-0.36587 -3.32504,-3.16714 -12.0063,5.33388 7.4615,-6.41974 -1.0428,-0.88454 1.24372,1.41641 1.18316,1.7263 1.6847,5.18682 -6.89549,10.81991 -10.41483,7.08016 -0.20245,-0.1627 -0.46172,-0.40365 -0.72142,-0.47811 -0.0729,-0.0209 -0.29057,0.0732 -0.22492,0.0352 5.25686,-3.04719 12.96979,-6.7628 8.67287,-5.13304 -0.36941,0.55796 -0.46581,1.48526 0.31358,1.7423 0.39063,0.004 0.22469,0.069 0.50507,-0.17367 -3.07799,1.7999 -6.15598,3.59979 -9.23397,5.39968 -0.15891,0.0934 0.33706,-0.15427 0.48794,-0.26015 0.41252,-0.28949 0.48572,-0.47084 0.77764,-0.88169 0.63564,-0.63116 1.11352,-1.38207 1.68926,-2.06426 2.67669,-3.17158 10.63737,-1.65599 10.71804,-6.33529 1.42619,-0.4887 2.90704,-0.45904 4.39389,-0.28127 1.48528,0.29317 2.75768,1.134 1.77106,2.76355 -1.76637,1.99349 -4.01317,3.498 -5.90615,5.36974 0,0 -10.40525,4.2167 -10.40525,4.2167 z"
       inkscape:connector-curvature="0" />
  </g>
</svg>
