<?xml version="1.0" encoding="UTF-8" standalone="no"?>
<!-- Created with Inkscape (http://www.inkscape.org/) -->

<svg
   xmlns:dc="http://purl.org/dc/elements/1.1/"
   xmlns:cc="http://creativecommons.org/ns#"
   xmlns:rdf="http://www.w3.org/1999/02/22-rdf-syntax-ns#"
   xmlns:svg="http://www.w3.org/2000/svg"
   xmlns="http://www.w3.org/2000/svg"
   xmlns:sodipodi="http://sodipodi.sourceforge.net/DTD/sodipodi-0.dtd"
   xmlns:inkscape="http://www.inkscape.org/namespaces/inkscape"
   width="210mm"
   height="297mm"
   viewBox="0 0 210 297"
   version="1.1"
   id="svg8"
   inkscape:version="0.92.3 (2405546, 2018-03-11)"
   sodipodi:docname="dibujo.svg">
  <defs
     id="defs2" />
  <sodipodi:namedview
     id="base"
     pagecolor="#ffffff"
     bordercolor="#666666"
     borderopacity="1.0"
     inkscape:pageopacity="0.0"
     inkscape:pageshadow="2"
     inkscape:zoom="0.35"
     inkscape:cx="286.73186"
     inkscape:cy="713.10048"
     inkscape:document-units="mm"
     inkscape:current-layer="layer1"
     showgrid="false"
     showguides="true"
     inkscape:window-width="1920"
     inkscape:window-height="1017"
     inkscape:window-x="-8"
     inkscape:window-y="-8"
     inkscape:window-maximized="1">
    <inkscape:grid
       type="xygrid"
       id="grid839" />
  </sodipodi:namedview>
  <metadata
     id="metadata5">
    <rdf:RDF>
      <cc:Work
         rdf:about="">
        <dc:format>image/svg+xml</dc:format>
        <dc:type
           rdf:resource="http://purl.org/dc/dcmitype/StillImage" />
        <dc:title />
      </cc:Work>
    </rdf:RDF>
  </metadata>
  <g
     inkscape:label="Capa 1"
     inkscape:groupmode="layer"
     id="layer1"
     style="opacity:1">
    <rect
       style="fill:#550000;stroke-width:0.92184907"
       id="rect3746"
       width="527.51361"
       height="352.96567"
       x="-133.04762"
       y="-40.154762" />
    <path
       style="fill:#ff0000;stroke-width:0.43697953"
       id="path3750"
       d="m 94.208473,34.989007 c -4.81594,0.69337 -9.56468,1.737721 -14.09945,3.150294 -6.759568,2.52532 -17.005112,7.101995 13.17395,-5.870458 3.12554,-1.343491 -2.81144,1.365188 -3.45331,1.73512 -2.00972,1.008714 -3.60876,2.376927 -5.32563,3.637542 -1.84374,1.424467 -3.81209,2.710461 -5.47605,4.266416 -1.417572,1.722803 -2.841492,3.457163 -4.016757,5.283839 -0.907918,1.778107 -1.78873,3.5517 -2.491758,5.38251 -0.790326,2.058603 -1.747372,4.080136 -2.445613,6.158201 -0.351913,1.974557 -1.005295,3.895082 -1.578844,5.835683 -0.525477,1.967237 -0.598235,3.978761 -0.659192,5.978509 0.01431,2.1322 -0.158438,4.272656 0.08522,6.398998 0.308054,2.206368 1.277792,4.302594 1.92548,6.455455 0.418505,1.932842 1.260106,3.796776 2.116484,5.63951 0.711594,1.80508 1.328688,3.645636 2.349184,5.369681 0.71147,1.514722 1.773184,2.852017 2.945594,4.176805 1.2624,1.475538 2.547252,2.910008 4.179562,4.166398 1.95349,1.36474 3.99737,2.69284 6.27467,3.74473 1.9845,1.22009 4.30027,2.11064 6.72122,2.71665 2.39772,0.57133 4.67965,1.23341 7.191457,1.49841 2.69499,0.21345 5.40925,0.20705 8.1157,0.21394 2.86645,1.5e-4 5.73291,-0.009 8.59937,-0.0102 2.87241,-0.001 5.74484,-0.004 8.61726,-0.004 2.72218,-0.30315 5.27994,-0.77315 7.68985,-1.79172 0.40791,-0.13706 1.60986,-0.58063 1.22372,-0.41124 -43.191167,18.94683 0.197,-0.16607 3.22733,-1.41456 5.84565,-2.4084 -11.54461,5.01548 -17.32645,7.51056 -0.32796,0.14158 0.64283,-0.29975 0.96426,-0.44965 1.10873,-0.48807 0.61231,-0.25252 1.49903,-0.69473 0,0 19.72375,-6.31847 19.72375,-6.31847 v 0 c -0.63353,0.87873 -0.22491,0.4656 -1.26874,1.21438 -8.10406,3.32129 10.9258,-4.48654 -20.27695,8.83416 -5.77473,2.46529 11.47419,-5.03019 17.21301,-7.54304 0.35713,-0.15637 -0.71013,0.31809 -1.06792,0.47363 -19.68917,8.56009 -12.63324,6.08279 -20.62729,8.85085 -2.64371,0.74083 -5.39997,1.19858 -8.23205,1.23115 -2.87169,3.9e-4 -5.74336,0.001 -8.61504,0.006 -2.871357,0.004 -5.742807,0.0146 -8.614147,-7.1e-4 -2.78628,-0.0286 -5.58917,-0.0548 -8.34045,-0.42693 -2.54055,-0.41487 -4.93277,-1.14119 -7.400842,-1.74549 -2.484445,-0.78114 -4.855002,-1.74208 -6.972407,-3.00953 -2.330337,-1.20318 -4.520606,-2.56549 -6.549814,-4.04796 -1.689525,-1.34222 -3.030645,-2.86911 -4.396515,-4.40179 -1.243747,-1.39576 -2.351074,-2.82234 -3.110716,-4.41407 -1.065286,-1.75947 -1.738427,-3.640944 -2.415848,-5.502073 -0.889616,-1.902406 -1.829592,-3.818957 -2.227356,-5.821991 -0.610414,-2.212549 -1.652845,-4.338948 -2.022847,-6.589429 -0.433275,-2.181221 -0.17518,-4.394792 -0.225274,-6.595636 0.03501,-2.079863 0.07013,-4.168038 0.470202,-6.230061 0.462124,-1.982915 1.405186,-3.864792 1.578228,-5.885901 0.579925,-2.143686 1.588926,-4.173781 2.347066,-6.279988 0.434812,-0.915815 0.641814,-1.852873 1.063073,-2.770486 0.134662,-0.293324 0.302946,-0.577179 0.45442,-0.865784 0.174628,-0.275981 0.38611,-0.540256 0.523904,-0.827941 0.163528,-0.34141 0.250897,-0.701041 0.37635,-1.05154 0.980347,-1.998988 2.585005,-3.717963 3.840557,-5.611631 1.435525,-1.711158 3.169523,-3.210625 5.338161,-4.415249 1.508468,-1.451805 3.391579,-2.701973 5.180734,-3.948487 1.421537,-0.770051 0.718086,-0.347036 2.100127,-1.27866 7.591347,-4.205808 16.079607,-7.628766 24.738297,-10.459349 4.690927,-1.246631 9.482577,-2.248039 14.354777,-3.00396 0,0 -16.964727,9.765291 -16.964727,9.765291 z"
       inkscape:connector-curvature="0" />
    <path
       style="fill:#ff0000;stroke-width:0.1650663"
       id="path3754"
       d="m 165.02056,109.4338 c 0.004,1.1859 0.23013,2.35691 1.23513,3.0315 0.86543,0.20361 1.67517,-0.14616 2.50331,-0.35373 0.85372,-0.18225 1.74947,-0.17404 2.49241,-0.69179 2.1635,-1.19358 1.49584,-0.82961 -5.31627,3.17242 -0.0883,0.052 0.17304,-0.11222 0.24771,-0.18351 0.17267,-0.16467 0.27891,-0.34904 0.32606,-0.58205 0.74465,2.38618 -0.0813,-0.0224 5.97196,-2.81467 0.12564,-0.058 -0.13298,0.25081 -0.18019,0.38469 -0.17178,0.48687 -0.21064,0.9926 -0.22819,1.50438 0.0242,0.14085 0.0355,0.28462 0.0722,0.42255 0.0916,0.34586 0.2018,0.35919 0.20597,0.34718 0.61623,-1.77587 -6.81045,5.71233 -5.72422,2.69208 0.0931,-0.60503 0.039,-1.42629 -0.6601,-1.55059 -2.0092,1.78281 -0.55295,0.37145 5.27913,-2.9781 0.09,-0.0519 -0.15624,0.14231 -0.21619,0.22928 -0.16035,0.2326 -0.16666,0.34086 -0.23299,0.59913 0.0537,0.76979 0.8819,0.22072 1.21981,0.009 2.14138,-1.58414 -0.0788,0.0789 -5.02702,2.92664 -0.15542,0.0894 0.28759,-0.21764 0.42003,-0.34054 0.37532,-0.3482 0.60783,-0.7364 0.83365,-1.19496 0.34911,-0.91129 -0.46832,-0.67575 -0.93826,-0.34494 1.87019,-1.08939 3.74036,-2.17879 5.61055,-3.26822 -0.32022,0.0102 -0.3895,0.52902 -0.60104,0.65543 -2.06164,1.23225 -4.12757,2.45901 -6.23233,3.6103 -0.0979,0.0535 -0.22097,-0.0131 -0.33148,-0.0199 -0.29133,-0.0393 -0.64046,0.003 -0.91239,0.13457 -0.1788,0.0863 -0.32674,0.23102 -0.50219,0.32436 1.88853,-1.11964 3.77706,-2.2393 5.66556,-3.35894 -0.40204,0.29924 -0.98216,0.60774 -1.00128,1.19224 0.30396,0.1862 0.84984,-0.20196 1.10176,-0.39611 -1.8523,1.09122 -3.70457,2.18243 -5.55685,3.27363 0.25739,-0.11105 1.29519,-1.31867 0.91964,-1.47853 -0.0892,0.16927 -0.23957,0.3658 -0.37863,0.49775 -0.0722,0.0685 -0.33117,0.21591 -0.24635,0.16539 5.67982,-3.38219 7.31847,-4.82928 5.37135,-3.14265 -0.47963,0.49567 -0.90439,1.19433 -0.8017,1.9233 0.031,0.0146 0.0623,0.0548 0.0935,0.0409 0.11184,-0.0497 0.18482,-0.16434 0.27217,-0.25217 0.0643,-0.0646 0.24549,-0.26335 0.16712,-0.21829 -5.4778,3.14774 -7.27092,4.97736 -5.48183,3.18507 0.30652,-0.11193 0.4155,-1.79561 0.0509,-0.95204 0,0 5.58062,-4.22838 5.58062,-4.22838 v 0 c 0.97915,0.54449 0.9611,1.2588 0.68107,2.28148 -0.94081,2.67294 -0.0965,0.5159 -6.23403,4.18237 -0.45677,0.2729 -1.0035,-0.30226 -1.20352,-0.63688 -0.2634,-0.91285 0.004,-1.80664 0.50157,-2.59073 1.78783,-2.17032 0.18833,-0.29277 6.37608,-4.09257 0.42951,-0.26374 0.84697,-0.18519 1.19799,0.17627 0.58777,0.94278 0.18668,1.74058 -0.44906,2.53714 -2.08946,1.2549 -4.15857,2.54697 -6.2684,3.76469 -0.63971,0.36923 -1.46337,-0.0677 -1.78419,-0.65054 -0.22112,-0.75314 -0.005,-1.52831 0.66789,-1.9526 3.37473,-2.03997 4.60847,-3.84256 7.7312,-3.98069 2.40357,-0.58734 0.36849,-0.11952 -5.38767,3.40928 -0.0555,0.0339 0.11892,-0.0587 0.16355,-0.10696 0.17881,-0.19315 0.19519,-0.53782 0.41512,-0.67815 2.04814,-1.30702 4.16864,-2.48804 6.25296,-3.73206 1.09284,-0.0899 1.91696,0.52067 1.74202,1.74265 -1.12316,3.38022 -4.95094,4.61064 -7.90368,5.9942 -0.95263,0.18928 -1.752,-0.18583 -1.97675,-1.23179 0.0327,-3.16978 4.25389,-5.84665 7.11695,-4.97426 0.81944,0.58201 1.11357,1.38979 1.11622,2.4074 -0.49421,3.26828 -6.40313,6.77212 -6.89745,2.87177 -0.0139,-0.26842 0.0394,-2.10628 0.22733,-2.22993 6.19302,-4.07266 4.95588,-5.73964 6.50699,-3.33117 0.21788,3.13104 -4.93247,4.25048 -6.83105,5.28807 -0.84286,0.26003 -1.71186,0.35522 -2.56592,0.56842 -0.97275,0.23808 -1.94605,0.41182 -2.85001,-0.16233 -1.05991,-0.92783 -1.47207,-2.1834 -1.54676,-3.60582 0,0 6.13075,-3.23857 6.13075,-3.23857 z"
       inkscape:connector-curvature="0" />
    <path
       style="fill:#ff0000;stroke-width:0.42912245"
       id="path3758"
       d="m 69.130481,148.19675 c 1.437381,3.97834 3.475904,7.83355 5.079158,11.77751 1.217712,2.94521 3.023782,5.75147 4.759564,8.56177 1.51808,2.2665 2.66211,4.65091 4.25468,6.89147 1.5569,2.02969 2.95387,4.10601 4.23112,6.22814 1.33582,2.01276 2.53481,4.07639 3.53483,6.18204 1.16779,1.70019 1.91045,3.50793 2.74492,5.29415 0.72879,1.7629 1.76548,3.45948 2.72,5.1691 0.88293,2.00818 2.16519,3.91147 3.18396,5.88436 1.129937,2.03287 2.217657,4.08255 3.149367,6.16427 1.12733,2.00076 1.8337,4.09096 2.70471,6.14792 2.86641,7.5792 1.30385,2.9714 -18.117997,9.8056 0.24175,-1.77941 0.1798,-3.57263 0.17399,-5.35814 -0.0527,-2.3078 0.63865,-4.58228 1.00291,-6.86965 0.14986,-2.24924 0.63669,-4.46359 1.37259,-6.65372 0.65246,-1.9713 1.64375,-3.84337 2.91492,-5.65755 1.32458,-2.15808 2.79862,-4.23238 4.59652,-6.21755 1.78943,-2.14989 3.938207,-4.12656 6.055787,-6.12073 2.51319,-2.38807 4.97902,-4.8085 7.62499,-7.12687 2.5153,-1.99636 4.88215,-4.08023 7.17469,-6.20173 2.55816,-2.21816 4.94779,-4.52625 7.46705,-6.76511 2.13253,-1.93238 4.50748,-3.72096 6.74117,-5.59342 2.19124,-1.81818 4.39007,-3.63186 6.59505,-5.44209 1.69068,-1.51988 3.84681,-2.73591 6.04244,-3.88267 2.01753,-1.09531 4.05849,-2.16719 6.09632,-3.24389 0,0 20.26323,-5.70598 20.26323,-5.70598 v 0 c -1.88595,1.22614 -4.14237,2.11107 -6.04272,3.33176 -2.17343,1.11406 -4.39003,2.1775 -6.27862,3.5312 -2.06999,1.89054 -4.42508,3.61866 -6.59846,5.45542 -2.1993,1.91084 -4.61443,3.67297 -6.79173,5.59586 -2.59554,2.19442 -4.89367,4.54111 -7.51015,6.7236 -2.2903,2.13132 -4.52728,4.30445 -7.11784,6.26584 -2.77972,2.23085 -5.19566,4.67473 -7.685,7.05737 -2.10889,1.95943 -4.32633,3.88297 -6.04261,6.02617 -1.89476,1.89439 -3.57654,3.82538 -4.6974,6.01069 -1.17339,1.77954 -2.58772,3.46718 -3.09626,5.42498 -0.95834,2.07773 -1.39494,4.2608 -1.54744,6.436 -0.31839,2.24197 -0.95738,4.46826 -1.07877,6.71179 0.0156,1.82901 0.0448,3.65827 0.0101,5.48725 -22.099687,9.04792 -17.763427,12.3617 -20.690317,4.26144 -0.86463,-2.05437 -1.55444,-4.14326 -2.69506,-6.13668 -0.87572,-2.07036 -1.9821,-4.09517 -3.1026,-6.10586 -0.97232,-1.96784 -2.315332,-3.83661 -3.169912,-5.83446 -0.96674,-1.73645 -2.05424,-3.45182 -2.776714,-5.24529 -0.83253,-1.78886 -1.577165,-3.59757 -2.730953,-5.30423 -0.931024,-2.07771 -2.133788,-4.10057 -3.442696,-6.07523 -1.235401,-2.09713 -2.613865,-4.14057 -4.141813,-6.14177 -1.632269,-2.26144 -2.758296,-4.68003 -4.273794,-6.98069 -1.785629,-2.87366 -3.588508,-5.75958 -4.823896,-8.77557 -1.514321,-3.92776 -3.457375,-7.76817 -5.151271,-11.65923 0,0 19.110244,-7.32759 19.110244,-7.32759 z"
       inkscape:connector-curvature="0" />
    <path
       style="fill:#ff0000;stroke-width:0.20548192"
       id="path3762"
       d="m 142.35033,226.27535 c 1.63238,-1.29172 3.36964,-2.48967 4.93874,-3.84192 0.47399,-0.58698 0.58976,-0.41831 0.29908,-0.39583 -0.26897,0.0208 -0.53977,-0.0143 -0.80953,-0.024 -0.76746,0.027 -1.57975,-0.13034 -2.32488,0.0963 -0.35777,0.10891 -0.6786,0.29569 -1.02201,0.43593 12.96597,-6.62454 8.02856,-4.77624 5.63244,-2.1272 -2.46999,2.53547 -6.41516,6.49522 -10.12561,4.83875 -0.87966,-0.60246 -1.10941,-1.46426 -0.97924,-2.3954 1.22359,-2.98913 5.03427,-3.07191 8.80769,-4.6126 0.13047,-0.0532 1.0697,0.76312 1.16632,0.84953 0.32915,0.67617 0.47063,-0.23336 0.34658,-0.17591 -2.65252,1.22818 -5.13299,2.73168 -7.78804,3.95562 -0.12652,0.0584 0.0342,-0.25126 0.0245,-0.37675 -0.009,-0.10808 -0.0527,-0.21164 -0.0787,-0.31744 -0.49537,-0.61422 -1.08781,-0.98975 -1.3023,-1.74083 3.07217,-1.79403 7.31613,-6.11589 10.3025,-3.02883 0.0926,0.14155 0.18505,0.28311 0.27758,0.42467 0,0 -8.07308,4.10567 -8.07308,4.10567 v 0 c -0.0584,-0.0889 -0.1169,-0.17781 -0.17521,-0.2667 -2.75134,-2.30858 -9.93469,3.88796 6.17403,-4.67947 -0.86286,-0.64475 1.02911,1.03245 0.97901,1.25835 1.39401,3.78075 -5.70569,7.88682 -8.6178,5.16085 -0.16751,-0.11859 -0.38205,-0.29424 -0.59694,-0.34851 -0.0604,-0.0152 -0.24043,0.0532 -0.18611,0.0258 4.3498,-2.22116 10.73192,-4.92954 7.1764,-3.74158 -0.30566,0.40672 -0.38544,1.08264 0.25946,1.27002 0.32325,0.004 0.18594,0.0504 0.41794,-0.12662 -2.54689,1.312 -5.09378,2.62396 -7.64067,3.93594 -0.13149,0.0681 0.27889,-0.11255 0.40374,-0.18964 0.34133,-0.21101 0.4019,-0.34319 0.64344,-0.64268 0.52598,-0.46004 0.9214,-1.0074 1.39779,-1.50467 2.21485,-2.31182 8.80194,-1.20707 8.86869,-4.61791 1.1801,-0.35622 2.40545,-0.3346 3.63573,-0.20502 1.22901,0.21369 2.28188,0.82658 1.46549,2.0144 -1.4616,1.45308 -3.32071,2.54976 -4.88707,3.9141 0,0 -8.60986,3.07364 -8.60986,3.07364 z"
       inkscape:connector-curvature="0" />
  </g>
</svg>
